# xmcd
#
# Track frame offsets:
#	150
#	12666
#	23590
#	35822
#	48775
#	60447
#	72182
#	83134
#	96605
#	108580
#	118642
#	131682
#	144145
#	154351
#	169957
#	186724
#	197035
#	207357
#	219112
#	231204
#	242018
#	255520
#	270467
#	282838
#	293216
#	304935
#	316673
#
# Disc length: 4334 seconds
#
# Revision: 0
# Processed by: cddbd v1.5.2PL0 Copyright (c) Steve Scherf et al.
# Submitted via: EZCDAudioConverter 7.0.5.1
#
DISCID=8e10ec1b
DTITLE=Wanda Jackson - Tears Will Be The Chaser For Your Wine [CD1]
DYEAR=1997
DGENRE=Country
TTITLE0=Slippin'
TTITLE1=Memory Mountain
TTITLE2=Just For You
TTITLE3=Violet And The Rose
TTITLE4=Making Believe
TTITLE5=Cold, Cold Heart
TTITLE6=Please Help Me I'm falling
TTITLE7=Don't Let Me Cross Over
TTITLE8=Candy Man
TTITLE9=Yakety Yak
TTITLE10=Searchin'
TTITLE11=Whole Lot Of Shakin' Goin' On
TTITLE12=Honey Don't
TTITLE13=The Keeper Of The Key
TTITLE14=Don't Worry
TTITLE15=Rip It Up
TTITLE16=I'm Waiting Just For You
TTITLE17=Lonely Street
TTITLE18=Singing The Blues
TTITLE19=Midnight
TTITLE20=Blues Stay Away From Me
TTITLE21=Weary Blues From Waiting
TTITLE22=Oh Lonesome Me
TTITLE23=Night Life
TTITLE24=If I Were You
TTITLE25=I'm Mad At Me
TTITLE26=Leave My Baby Alone
EXTD=
EXTT0=
EXTT1=
EXTT2=
EXTT3=
EXTT4=
EXTT5=
EXTT6=
EXTT7=
EXTT8=
EXTT9=
EXTT10=
EXTT11=
EXTT12=
EXTT13=
EXTT14=
EXTT15=
EXTT16=
EXTT17=
EXTT18=
EXTT19=
EXTT20=
EXTT21=
EXTT22=
EXTT23=
EXTT24=
EXTT25=
EXTT26=
PLAYORDER=
